<svg xmlns="http://www.w3.org/2000/svg" data-name="Layer 1" viewBox="0 0 64 64"><polygon points="26.276 22 21.207 22 16.141 31.793 18.695 36.657 26.276 22"/><polygon points="35.276 22 30.276 22 20.71 40.495 23.228 45.292 35.276 22"/><polygon points="14.127 27.955 17.207 22 11 22 14.127 27.955"/><polygon points="44.276 22 39.276 22 25.243 49.13 27.762 53.927 44.276 22"/><polygon points="53 22 48.276 22 29.777 57.765 32 62 53 22"/><path d="M31,15v2a1,1,0,0,0,2,0V15a1,1,0,0,0-2,0Z"/><polygon points="33.236 4.633 32 2 30.764 4.633 28 5.056 30 7.106 29.528 10 32 8.633 34.472 10 34 7.106 36 5.056 33.236 4.633"/><polygon points="59 5 58.073 6.975 56 7.292 57.5 8.829 57.146 11 59 9.975 60.854 11 60.5 8.829 62 7.292 59.927 6.975 59 5"/><path d="M50.234,12.571a2.932,2.932,0,0,0,2.5-.889,1,1,0,0,0-1.462-1.364c-.248.264-.419.269-.972.254a2.926,2.926,0,0,0-2.5.888,3.254,3.254,0,0,0-.8,2.569c.016.584.011.855-.265,1.15-.245.263-.418.271-.969.252a2.937,2.937,0,0,0-2.5.887,1,1,0,1,0,1.462,1.364c.246-.263.418-.268.969-.252a2.916,2.916,0,0,0,2.5-.887,3.253,3.253,0,0,0,.8-2.568c-.016-.584-.012-.855.264-1.15C49.509,12.561,49.68,12.555,50.234,12.571Z"/><polygon points="3.146 11 5 9.975 6.854 11 6.5 8.829 8 7.292 5.927 6.975 5 5 4.073 6.975 2 7.292 3.5 8.829 3.146 11"/><path d="M13.7 10.572c-.553.017-.725.011-.972-.254a1 1 0 0 0-1.462 1.364 2.93 2.93 0 0 0 2.5.889c.557-.017.725-.01.972.254.276.295.28.566.264 1.15a3.253 3.253 0 0 0 .8 2.568 2.916 2.916 0 0 0 2.5.887c.551-.016.723-.011.969.252a1 1 0 0 0 1.462-1.364 2.935 2.935 0 0 0-2.5-.887c-.55.019-.724.011-.969-.252-.276-.295-.281-.566-.265-1.15a3.254 3.254 0 0 0-.8-2.569A2.926 2.926 0 0 0 13.7 10.572zM38.707 15.707l2-2a1 1 0 0 0-1.414-1.414l-2 2a1 1 0 1 0 1.414 1.414zM45.293 4.293l-2 2a1 1 0 1 0 1.414 1.414l2-2a1 1 0 1 0-1.414-1.414zM26 16a1 1 0 0 0 .707-1.707l-2-2a1 1 0 0 0-1.414 1.414l2 2A1 1 0 0 0 26 16zM19.293 7.707a1 1 0 0 0 1.414-1.414l-2-2a1 1 0 0 0-1.414 1.414z"/></svg>