<svg xmlns="http://www.w3.org/2000/svg" data-name="Layer 1" viewBox="0 0 32 32"><path d="M29.5,3H2.5A2.5,2.5,0,0,0,0,5.5v18A2.5,2.5,0,0,0,2.5,26H12.97a5.48,5.48,0,0,1-2.17,3.9L9.2,31.1a.5.5,0,0,0-.17.56A.486.486,0,0,0,9.5,32h13a.486.486,0,0,0,.47-.34.5.5,0,0,0-.17-.56l-1.6-1.2A5.48,5.48,0,0,1,19.03,26H29.5A2.5,2.5,0,0,0,32,23.5V5.5A2.5,2.5,0,0,0,29.5,3ZM20.6,30.7l.4.3H11l.4-.3A6.531,6.531,0,0,0,13.98,26h4.04A6.531,6.531,0,0,0,20.6,30.7ZM31,23.5A1.5,1.5,0,0,1,29.5,25H2.5A1.5,1.5,0,0,1,1,23.5V22H31ZM4,21V17h7v4Zm11,0V17H28v4Zm16,0H29V16.5a.5.5,0,0,0-.5-.5h-14a.5.5,0,0,0-.5.5V21H12V16.5a.5.5,0,0,0-.5-.5h-8a.5.5,0,0,0-.5.5V21H1V5.5A1.5,1.5,0,0,1,2.5,4h27A1.5,1.5,0,0,1,31,5.5ZM28.5,6H3.5a.5.5,0,0,0-.5.5v7a.5.5,0,0,0,.5.5h25a.5.5,0,0,0,.5-.5v-7A.5.5,0,0,0,28.5,6ZM24.859,7,16,9.481,7.139,7ZM4,7.159,14.145,10,4,12.841ZM7.14,13,16,10.519,24.86,13ZM28,12.841,17.854,10,28,7.159ZM25.5,18.5h-8a.5.5,0,0,0,0,1h8a.5.5,0,0,0,0-1Zm-17,0h-2a.5.5,0,0,0,0,1h2a.5.5,0,0,0,0-1Z"/></svg>