<svg xmlns="http://www.w3.org/2000/svg" width="64" height="64"><path style="line-height:normal;text-indent:0;text-align:start;text-decoration-line:none;text-decoration-style:solid;text-decoration-color:#000;text-transform:none;block-progression:tb;white-space:normal;isolation:auto;mix-blend-mode:normal;solid-color:#000;solid-opacity:1" d="M22.71 11.77a.5.5 0 0 0-.41.25l-4 6.927a.5.5 0 0 0 .184.684l.639.369h-7.832A2.3 2.3 0 0 0 9 22.297v11.695l-.654.377-1.932 1.115-.309.178a.5.5 0 0 0-.03.018.5.5 0 0 0-.044.025l-.636.367-1.698.98a1.678 1.678 0 0 0-.658 2.19l-.596.344a.901.901 0 0 0-.326 1.219l.783 1.36a.901.901 0 0 0 1.22.325l.595-.344c.367.55 1.016.818 1.644.723l.942 3.16H6.5a.5.5 0 0 0-.5.5A5.47 5.47 0 0 0 11.473 52h39.054a5.47 5.47 0 0 0 5.45-5h.539c.79 0 1.48-.61 1.48-1.402v-7.194c0-.507-.284-.939-.695-1.185l.654-2.442a1.335 1.335 0 0 0-.94-1.625l-3.019-.806v-1.018c0-.612-.427-1.133-.996-1.281v-7.75A2.3 2.3 0 0 0 50.709 20h-7.832l.639-.37a.5.5 0 0 0 .183-.683l-4-6.927a.5.5 0 0 0-.683-.184l-2.598 1.5a.5.5 0 0 0-.184.684l.078.134-1.382.8a3.848 3.848 0 0 0-.12-.065c-.028-.015-.055-.033-.083-.047a3.838 3.838 0 0 0-1.018-.326l-.045-.006a3.807 3.807 0 0 0-.33-.043c-.042-.003-.085.001-.127 0-.06-.003-.12 0-.18 0a3.781 3.781 0 0 0-.37.017c-.023.003-.045.002-.067.004-.032.004-.062.017-.094.022a3.8 3.8 0 0 0-.51.113 3.837 3.837 0 0 0-.84.35h-.001l-.14.08h-.001l-.16-.088a4.036 4.036 0 0 0-1.448-.46h-.003a3.943 3.943 0 0 0-.67-.013c-.059.003-.116.01-.174.016a3.887 3.887 0 0 0-.506.086c-.059.014-.118.024-.176.04-.212.061-.423.135-.623.231-.056.028-.109.064-.164.094l-1.392-.805.078-.134a.5.5 0 0 0-.184-.684l-2.598-1.5a.5.5 0 0 0-.273-.066zm.208 1.181 1.732 1-.02.033a.5.5 0 0 0-.118.21l-2.367 4.097a.5.5 0 0 0-.147.254L21.158 20h-.031l-1.709-.986 3.5-6.063zm16.164 0 3.5 6.063-1.707.986h-.031l-.895-1.547a.5.5 0 0 0-.023-.043l-2.574-4.459 1.73-1zm-13.895 2.07 1.024.592-.049.053c-.05.052-.1.101-.146.156-.149.175-.288.36-.407.567l-1.027 1.777v.002c-.013.022-.019.046-.031.068-.1.181-.185.364-.25.551-.035.096-.06.194-.086.291l-1.027-.594 2-3.463zm11.625 0 2 3.463-1.035.598a3.522 3.522 0 0 0-.304-.795.5.5 0 0 0-.055-.119v-.002l-1.027-1.777a3.912 3.912 0 0 0-.305-.448c-.036-.046-.075-.088-.113-.132-.058-.068-.112-.139-.174-.202l1.014-.586zm-3.703.444c.051 0 .102-.004.153 0 .217.016.43.058.638.123.03.009.057.023.086.033a2.847 2.847 0 0 1 .63.31c.135.09.26.194.38.307.041.04.086.074.125.116.15.16.29.335.404.535l1.028 1.777v.002a2.81 2.81 0 0 1 .345 1.84c-.051-.041-.103-.083-.162-.117l-3.422-1.977a1.466 1.466 0 0 0-.14-.703.5.5 0 0 0-.057-.125c-.005-.01-.012-.016-.017-.025a.5.5 0 0 0-.03-.04c-.437-.67-1.346-.868-2.049-.462a.5.5 0 0 0-.019.011l-.133.086-1.885 1.088c-.365.211-.793.082-1.16-.195l1.033-.598 2.399-1.387a.5.5 0 0 0 .014-.007l.375-.217a.5.5 0 0 0 .001-.002 2.87 2.87 0 0 1 .948-.334c.068-.012.136-.025.205-.031.103-.01.207-.01.31-.008zm-4.38.012c.363-.025.735.02 1.1.136h.001c.04.013.078.037.117.051l-1.592.92-1.623.941a.5.5 0 0 0-.181.682c.606 1.05 1.915 1.49 2.933.902l1.524-.879 1.023.592a.5.5 0 0 0 .065.045l.4.23a.5.5 0 0 0 .024.016l3.716 2.145a.36.36 0 0 1 .143.496 2.823 2.823 0 0 1-.049.064.356.356 0 0 1-.469.088l-4.115-2.375-.432-.25a.5.5 0 0 0-.5.867l.432.248 4.115 2.377h.002l.416.24a.5.5 0 0 0 .06.065c.145.125.184.296.09.457a.398.398 0 0 1-.099.115.349.349 0 0 1-.267.073.405.405 0 0 1-.145-.051l-.43-.248-.002-.002-4.115-2.375-.432-.25a.5.5 0 0 0-.5.867l.432.248 4.115 2.377a.4.4 0 0 1 .18.225v.002a.398.398 0 0 1-.143.4.348.348 0 0 1-.267.072.405.405 0 0 1-.145-.05l-.867-.5-3.68-2.125-.867-.5a.5.5 0 0 0-.5.865l.867.5 3.68 2.125a.365.365 0 0 1 .137.513.398.398 0 0 1-.1.116.349.349 0 0 1-.267.072.405.405 0 0 1-.145-.05l-4.283-2.474-.006-.003-.258-.149-1.343-.777c-.115-.066-.215-.148-.317-.227a.5.5 0 0 0-.02-.017 2.848 2.848 0 0 1-.882-1.19l-.012-.031a2.81 2.81 0 0 1-.121-.414c-.009-.043-.015-.087-.022-.131a2.802 2.802 0 0 1-.037-.352c-.002-.074.003-.15.006-.224.004-.093.006-.185.02-.277.015-.103.043-.205.07-.307.018-.07.03-.142.055-.211.06-.17.134-.339.228-.502v-.002l1.028-1.777a2.8 2.8 0 0 1 2.254-1.412zm-7.985 2.671a.5.5 0 0 0-.394.25.5.5 0 0 0 .183.682.5.5 0 0 0 .682-.182.5.5 0 0 0-.182-.683.5.5 0 0 0-.289-.067zm20.461 0a.5.5 0 0 0-.238.067.5.5 0 0 0-.182.683.5.5 0 0 0 .682.182.5.5 0 0 0 .183-.682.5.5 0 0 0-.445-.25zm-18.517 1.204L23.81 20h-1.498l.375-.648zm16.625 0 .374.648H38.19l1.123-.648zM11.29 21h9.564l.227.13a.5.5 0 0 0 .647-.13h2.453c.166.687.525 1.32 1.045 1.828-.031.062-.065.123-.088.188H12.5a.5.5 0 0 0-.5.5v5.54l-1.223.706a.5.5 0 0 0-.181.683l.14.242a2.221 2.221 0 0 1-.736 2.7v-11.09A1.28 1.28 0 0 1 11.291 21zm26.436 0h2.544a.5.5 0 0 0 .647.13l.227-.13h9.564c.724 0 1.291.57 1.291 1.297V30h-2v-6.484a.5.5 0 0 0-.5-.5H36.861a1.836 1.836 0 0 0-.146-.31c.02-.021.035-.045.055-.065.177-.098.361-.186.468-.371.091-.158.145-.327.168-.499a3.97 3.97 0 0 0 .32-.771zm-11.672 2.463.425.244a.355.355 0 0 1-.41-.172.5.5 0 0 0-.002 0c-.013-.024-.005-.048-.013-.072zM13 24.016h12.197c.003.005.003.012.006.017.258.447.735.599 1.22.59.002.23-.033.464.089.676.34.59 1.06.766 1.677.53.025.164-.025.333.063.485.376.653 1.227.88 1.879.504l.869-.502.87.502c.651.377 1.502.151 1.878-.502.088-.152.038-.322.063-.488.154.06.315.092.474.1.319.015.635-.073.885-.264.125-.096.233-.216.318-.363.123-.212.087-.447.088-.678.486.009.963-.141 1.22-.588.005-.006.005-.013.009-.02H49V30h-1.68c-.725 0-1.324.603-1.324 1.328v1.018l-1.928.515a.5.5 0 0 0-.18.047l-.908.244a1.335 1.335 0 0 0-.939 1.625l.654 2.44c-.413.246-.699.679-.699 1.187v4.612H13v-3.842l.055-.031a2.23 2.23 0 0 1 2.912.605l.129.225a.5.5 0 0 0 .56.23.5.5 0 0 0 .219-.105l1.635-.944a.5.5 0 0 0 .183-.681l-1.431-2.48c1.063-.869 1.383-2.407.675-3.632a2.858 2.858 0 0 0-3.482-1.232l-1.262-2.184a.5.5 0 0 0-.193-.187v-4.742zm14.502.283.08.045a.5.5 0 0 0 .004.002l.664.384-.36.207a.362.362 0 0 1-.511-.136.5.5 0 0 0-.002 0 .363.363 0 0 1 .125-.502zm1.75 1.008.748.433-.37.213a.363.363 0 0 1-.51-.137.5.5 0 0 0-.003 0 .363.363 0 0 1 .135-.51zm-13.516 1.486-.783 1.36.865.5.786-1.36-.868-.5zm40.756.193a.5.5 0 0 0-.492.508.5.5 0 1 0 0 1 .5.5 0 1 0 1 0 .5.5 0 1 0 0-1 .5.5 0 0 0-.508-.508zm-15 .016a.5.5 0 0 0-.492.506V28h-.492a.5.5 0 1 0 0 1H41v.494a.5.5 0 1 0 1 0V29h.492a.5.5 0 1 0 0-1H42v-.492a.5.5 0 0 0-.508-.506zM18.09 28.434l-1.11 1.109.707.707 1.11-1.11-.707-.706zm15.07.882c-1.098 0-2 .902-2 2 0 .184.033.357.08.526l-3.941 1.97a2.223 2.223 0 0 0-1.389-.496 2.258 2.258 0 0 0-2.25 2.25 2.258 2.258 0 0 0 2.25 2.25c.51 0 .975-.178 1.354-.466l3.963 1.982c-.04.156-.067.317-.067.484 0 1.1.902 2 2 2 1.099 0 2-.9 2-2 0-1.098-.901-2-2-2a1.99 1.99 0 0 0-1.453.637l-3.791-1.894a2.21 2.21 0 0 0 .244-.993c0-.341-.084-.664-.223-.955l3.8-1.9c.363.37.867.605 1.423.605 1.099 0 2-.9 2-2 0-1.098-.901-2-2-2zm-20.584.563 5 8.66-.842.486-5-8.66.842-.486zm20.584.437c.558 0 1 .442 1 1 0 .559-.442 1-1 1s-1-.441-1-1c0-.558.442-1 1-1zm-13.22.313-1.36.785.5.865 1.36-.783-.5-.867zM47.32 31h.66a.764.764 0 0 1-.22.656c-.178.19-.456.316-.764.344v-.672c0-.191.138-.328.324-.328zm1.662 0h2.032a1.81 1.81 0 0 0 .486 1.29c.39.413.933.647 1.496.69V37h-.963v-1.262h-.549v.55c0 .349-.118.573-.287.712h-.248v-1.262h-.54V37h-.249c-.17-.139-.289-.363-.289-.713V35.738h-.54v.155L48.235 37h-1.24v-4.02a2.292 2.292 0 0 0 1.5-.69c.344-.366.496-.83.486-1.29zm3.032 0h.66c.186 0 .322.137.322.328v.668c-.305-.029-.583-.154-.76-.342-.181-.192-.259-.418-.222-.654zM38.5 32a.5.5 0 0 0-.5.5.5.5 0 0 0 .5.5.5.5 0 0 0 .5-.5.5.5 0 0 0-.5-.5zm-22.848.055c.572.017 1.106.265 1.418.806.417.722.185 1.524-.347 2.104l-.825-1.426-.822-1.428c.192-.043.386-.062.576-.056zm-3.87.443 3.146 5.45a3.224 3.224 0 0 0-2.373.33l-1.465.845-1.838 1.06-2.244-3.888 1.838-1.06 1.465-.846a3.217 3.217 0 0 0 1.47-1.891zM60.5 33a.5.5 0 0 0-.5.5.5.5 0 0 0 .5.5.5.5 0 0 0 .5-.5.5.5 0 0 0-.5-.5zm-39.344.229-1.515.404.26.967 1.515-.407-.26-.964zm24.84.152V37h-2.324l-.21-.785a1.991 1.991 0 0 0 1.3-1.1 1.99 1.99 0 0 0 .062-1.422l1.172-.312zm8 0 1.248.334a1.998 1.998 0 0 0 .043 1.5c.236.528.688.915 1.225 1.086l-.188.699h-2.328v-3.62zm-10.129.57c.09.242.09.514-.02.758a.989.989 0 0 1-.642.547l-.197-.736a.315.315 0 0 1 .23-.4l.63-.169zm12.348.024.543.144c.184.05.281.217.232.4l-.22.819a.99.99 0 0 1-.555-1.363zm-30.305.341c.696 0 1.25.554 1.25 1.25 0 .697-.554 1.25-1.25 1.25s-1.25-.553-1.25-1.25c0-.696.554-1.25 1.25-1.25zm-5.818 1.737v1h1.568v-1h-1.568zm29.273.574c.029.137.08.26.139.373h-.508l.37-.373zm-43.224.168 2.246 3.889-.246.142-1.7.98a.664.664 0 0 1-.923-.247l-.178-.309a.5.5 0 0 0-.018-.031l-1.177-2.037-.196-.34a.664.664 0 0 1 .248-.924l1.698-.98.246-.143zm33.345.191a.5.5 0 0 0-.494.508.5.5 0 1 0 0 1 .5.5 0 1 0 1 0 .5.5 0 1 0 0-1 .5.5 0 0 0-.506-.508zM43.476 38h13.04c.296 0 .48.195.48.404v2.194h-4.832a.5.5 0 0 0-.394.191l-.666.852a.5.5 0 0 0-.108.308v1.701a.5.5 0 0 0 .108.309l.666.85a.5.5 0 0 0 .394.191h4.832v.598c0 .209-.184.402-.48.402h-13.04c-.295 0-.48-.193-.48-.402v-7.194c0-.209.185-.404.48-.404zm-10.316.816c.558 0 1 .442 1 1 0 .559-.442 1-1 1s-1-.441-1-1c0-.138.029-.27.078-.39a.5.5 0 0 0 0-.002.5.5 0 0 0 .082-.123.977.977 0 0 1 .84-.485zm27.332.186a.5.5 0 0 0-.492.506V40h-.492a.5.5 0 1 0 0 1H60v.494a.5.5 0 1 0 1 0V41h.492a.5.5 0 1 0 0-1H61v-.492a.5.5 0 0 0-.508-.506zM12 39.752v3.764a.5.5 0 0 0 .5.5h29.496v1.582c0 .152.033.295.08.431H11.004L10 42.605v-1.699l1.59-.918.41-.236zm-8.47.363.675 1.172-.492.283-.676-1.172.492-.283zm48.876 1.483h4.59V44h-4.59l-.41-.523V42.12l.41-.523zm-43.718.084 1.273 4.347H8.344l-1.055-3.54 1.399-.807zm44.773.648a.5.5 0 0 0-.465.498.5.5 0 0 0 .5.5.5.5 0 0 0 .5-.5.5.5 0 0 0-.5-.498.5.5 0 0 0-.035 0zM7.1 47.03H26v.827c0 .996.796 1.827 1.785 1.827h6.43c.99 0 1.785-.831 1.785-1.827v-.828h18.9C54.644 49.264 52.836 51 50.527 51H11.473c-2.31 0-4.117-1.736-4.373-3.97zm19.9 0h8v.827c0 .476-.35.827-.785.827h-6.43c-.435 0-.785-.351-.785-.827v-.828z" color="#000" enable-background="accumulate" font-family="sans-serif" font-weight="400" overflow="visible"/></svg>