<svg xmlns="http://www.w3.org/2000/svg" width="100" height="100"><path d="M52.646 62.592v-7.411h8.651a2 2 0 0 0 0-4H50.685c-.013 0-.026-.004-.039-.004s-.026.004-.039.004h-9.919c-.013 0-.026-.004-.039-.004s-.026.004-.039.004H26.408c-4.886 0-8.86-3.979-8.86-8.87v-24.44c0-4.891 3.975-8.87 8.86-8.87h38.479c4.886 0 8.86 3.979 8.86 8.87v18.98a2 2 0 0 0 4 0v-18.98c0-7.097-5.77-12.87-12.86-12.87H26.408c-7.091 0-12.86 5.773-12.86 12.87v24.44c0 7.096 5.769 12.87 12.86 12.87H38.65v7.411L20.096 91.93a2 2 0 0 0 3.381 2.139l7.978-12.615h28.386l7.978 12.615a1.998 1.998 0 0 0 2.759.621 2 2 0 0 0 .621-2.76L52.646 62.592zm-9.996-7.411h5.997v5.992H42.65v-5.992zm-8.665 22.272 7.766-12.28h7.794l7.766 12.28H33.985z"/><path d="M85.045 52.255a2.066 2.066 0 0 0-.202-.25L66.591 33.564l-2.963-3.868a8.246 8.246 0 0 0-2.389-5.178 8.121 8.121 0 0 0-4.096-2.224l-.008-.002-9.885-2.507c-.033-.008-.066-.008-.099-.015a2.089 2.089 0 0 0-.399-.04 1.92 1.92 0 0 0-.396.042c-.03.006-.06.006-.09.013-.031.008-.057.023-.087.032a1.96 1.96 0 0 0-.369.154 2.23 2.23 0 0 0-.321.215c-.049.04-.094.083-.138.128-.046.046-.09.092-.131.141a2.26 2.26 0 0 0-.216.322 2.006 2.006 0 0 0-.153.371c-.009.029-.023.054-.03.084-.008.029-.007.059-.013.088a1.903 1.903 0 0 0-.042.404 2.033 2.033 0 0 0 .042.404c.006.029.006.059.013.088l2.486 9.789.025.109c.006.027.017.05.025.076a8.164 8.164 0 0 0 2.198 4.013 8.239 8.239 0 0 0 5.175 2.389l3.87 2.964L77.041 59.81c.081.081.171.148.261.211a5.49 5.49 0 0 0 3.633 1.394 5.496 5.496 0 0 0 3.901-1.613c2.07-2.073 2.126-5.383.209-7.547zM58.422 33.378l-.005.004c-1.661 1.661-4.369 1.657-6.035-.009a4.195 4.195 0 0 1-1.151-2.149l-.025-.11-.011-.033-1.672-6.593 6.626 1.682.003.001h.001l.015.003.091.021.005.001.037.008a4.164 4.164 0 0 1 2.11 1.142c1.664 1.666 1.669 4.371.011 6.032zm23.585 23.595a1.519 1.519 0 0 1-2.146 0l-.001-.001-.006-.007-18.53-18.341c-.031-.031-.068-.053-.101-.082-.031-.027-.057-.059-.09-.085l-1.392-1.066a8.213 8.213 0 0 0 1.482-1.159c.008-.008.018-.013.026-.021.463-.462.851-.97 1.18-1.504l1.065 1.39c.021.028.049.047.072.074.032.038.058.08.094.116l18.341 18.532.007.006.001.001c.59.592.59 1.555-.002 2.147z"/></svg>