<svg xmlns="http://www.w3.org/2000/svg" data-name="Layer 1" viewBox="0 0 32 32"><path d="M16.46,4.3a.076.076,0,0,0-.02-.04c-.006-.012-.021-.016-.028-.027a.481.481,0,0,0-.823,0c-.008.011-.022.015-.028.027a.076.076,0,0,0-.02.04L8.49,17.45a2.506,2.506,0,0,0-.12,2.09L11.27,27H11a1.5,1.5,0,0,0-1.5,1.5v2A1.5,1.5,0,0,0,11,32H21a1.5,1.5,0,0,0,1.5-1.5v-2A1.5,1.5,0,0,0,21,27h-.27l2.9-7.46a2.506,2.506,0,0,0-.12-2.09ZM16,17.5a1,1,0,1,1-1,1A1,1,0,0,1,16,17.5ZM21,28a.5.5,0,0,1,.5.5v2a.5.5,0,0,1-.5.5H11a.5.5,0,0,1-.5-.5v-2A.5.5,0,0,1,11,28Zm1.7-8.82L19.66,27H12.34L9.3,19.18a1.5,1.5,0,0,1,.08-1.26L15.5,6.49V16.5a.469.469,0,0,0,.012.06h0a2,2,0,1,0,.98,0h0a.469.469,0,0,0,.012-.06V6.49l6.12,11.43A1.5,1.5,0,0,1,22.7,19.18ZM26.5,0h-2a.5.5,0,0,0-.5.5V1H17.41a1.494,1.494,0,0,0-2.82,0H8V.5A.5.5,0,0,0,7.5,0h-2A.5.5,0,0,0,5,.5v2a.5.5,0,0,0,.5.5h2A.5.5,0,0,0,8,2.5V2h4.15A7.946,7.946,0,0,0,8.26,7.02,1.5,1.5,0,1,0,10,8.5a1.453,1.453,0,0,0-.76-1.29,6.989,6.989,0,0,1,5.41-5.07,1.49,1.49,0,0,0,2.7,0,6.989,6.989,0,0,1,5.41,5.07A1.453,1.453,0,0,0,22,8.5a1.5,1.5,0,1,0,1.74-1.48A7.946,7.946,0,0,0,19.85,2H24v.5a.5.5,0,0,0,.5.5h2a.5.5,0,0,0,.5-.5V.5A.5.5,0,0,0,26.5,0ZM7,2H6V1H7ZM8.5,9a.5.5,0,0,1,0-1h.05c.02,0,.03.01.05.01A.5.5,0,0,1,9,8.5.5.5,0,0,1,8.5,9ZM16,2a.5.5,0,1,1,.5-.5A.5.5,0,0,1,16,2Zm7.4,6.01A.435.435,0,0,0,23.45,8h.05a.5.5,0,1,1-.5.5A.5.5,0,0,1,23.4,8.01ZM26,2H25V1h1Z"/></svg>